<svg width="640" height="640" viewBox="0 0 640 640" fill="none" xmlns="http://www.w3.org/2000/svg">
<path d="M640 320C640 496.731 496.731 640 320 640C143.269 640 0 496.731 0 320C0 143.269 143.269 0 320 0C496.731 0 640 143.269 640 320Z" fill="#092248"/>
<path fill-rule="evenodd" clip-rule="evenodd" d="M296.413 73.5342C158.312 83.7592 55.2176 217.061 78.2197 355.657C96.0041 462.812 179.402 547.656 282.834 563.817C386.489 580.015 486.312 533.413 534.909 446.137C549.039 420.762 565 385.613 565 379.87C565 376.548 562.811 377.276 559.895 381.568C536.3 416.288 499.691 445.626 461.639 460.307C452.097 463.989 449.766 463.618 449.261 458.343C448.84 453.955 450.268 427.678 451.15 423.56C452.154 418.87 451.844 418.157 444.666 408.619C434.449 395.045 434.277 396.754 447.181 383.658C460.066 370.578 459.738 374.454 449.999 350.476C433.674 310.278 434.391 310.641 422.912 336.759C408.256 370.114 408.093 371.089 416.134 377.675C421.9 382.396 430.935 392.522 431.357 394.735C431.774 396.925 430.821 398.695 424.242 407.947C417.585 417.31 417.13 418.87 419.513 424.183C421.712 429.09 423.616 466.068 421.857 469.74C420.013 473.591 413.43 474.622 390.468 474.66C262.8 474.871 159.847 369.735 171.574 251.122C179.662 169.314 242.228 101.179 328.91 79.7856C340.387 76.9525 340.46 76.9276 340.46 75.8119C340.46 73.5342 314.527 72.1931 296.413 73.5342ZM480.754 119.714C470.347 126.839 448.206 143.785 441.15 150.025C435.229 155.261 434.263 155.396 428.663 151.773C424.528 149.098 399.077 131.073 388.812 123.552C375.153 113.541 375.035 113.682 376.136 138.748C378.418 190.774 379.239 185.693 367.622 191.495C363.43 193.589 354.783 198.147 348.408 201.625C342.033 205.105 334.581 209.06 331.849 210.416C312.95 219.803 311.16 222.191 320.14 226.044C327.911 229.379 372.063 254.524 374.591 257.056C377.337 259.804 377.328 264.537 374.51 309.431C373.397 327.17 373.492 328.138 376.335 328.138C378.981 328.138 393.2 319.077 419.865 300.396C433.199 291.054 432.93 291.116 438.931 296.057C441.42 298.108 446.726 301.913 450.723 304.512C454.719 307.113 464.652 313.641 472.798 319.021C491.996 331.701 493.574 331.835 492.157 320.677C489.133 296.852 487.83 265.023 489.728 261.347C490.821 259.231 492.019 258.504 530.888 236.398C557.012 221.542 556.576 224.01 535.194 211.945C527.726 207.729 516.846 201.673 511.018 198.486C487.093 185.401 489.585 191.598 490.784 148.184C491.796 111.487 491.986 112.024 480.754 119.714Z" fill="#CDAF76"/>
</svg>
